<?xml version="1.0" encoding="utf-8"?>
<!-- Generator: Adobe Illustrator 16.0.4, SVG Export Plug-In . SVG Version: 6.00 Build 0)  -->
<!DOCTYPE svg PUBLIC "-//W3C//DTD SVG 1.1//EN" "http://www.w3.org/Graphics/SVG/1.1/DTD/svg11.dtd">
<svg version="1.1" id="gear" xmlns="http://www.w3.org/2000/svg" x="0px"
	 y="0px"
	 width="500px" height="500px" viewBox="0 0 500 500" enable-background="new 0 0 500 500" xml:space="preserve">
<g>
	<g>
		<path d="M492.59,210.393l-51.714-12.883l-18.798-45.358l27.454-45.67c2.31-3.843,1.706-8.766-1.465-11.937l-42.618-42.618
			c-3.171-3.171-8.095-3.775-11.937-1.465l-45.67,27.454l-45.355-18.795L289.604,7.407c-1.084-4.352-4.992-7.405-9.476-7.405h-60.26
			c-4.484,0-8.392,3.054-9.477,7.405l-12.884,51.713L152.15,77.918l-45.67-27.454c-3.844-2.311-8.767-1.707-11.937,1.465
			L51.926,94.546c-3.171,3.171-3.774,8.094-1.465,11.937l27.454,45.67L59.119,197.51L7.405,210.393
			C3.054,211.477,0,215.385,0,219.868v60.26c0,4.484,3.054,8.392,7.405,9.477l51.714,12.883l18.797,45.358l-27.454,45.67
			c-2.311,3.843-1.706,8.766,1.465,11.937l42.618,42.618c3.17,3.17,8.094,3.773,11.937,1.464l45.67-27.453l45.358,18.798
			l12.883,51.714c1.084,4.352,4.992,7.405,9.477,7.405h60.26c4.484,0,8.392-3.054,9.477-7.405l12.883-51.714l45.358-18.798
			l45.67,27.453c3.843,2.31,8.766,1.706,11.937-1.465l42.617-42.617c3.171-3.171,3.774-8.094,1.465-11.937l-27.453-45.67
			l18.798-45.358l51.714-12.883c4.352-1.084,7.405-4.992,7.405-9.477v-60.26C499.995,215.385,496.941,211.477,492.59,210.393z
			 M480.464,272.498l-49.085,12.228c-3.004,0.749-5.476,2.877-6.661,5.737l-22.567,54.455c-1.186,2.861-0.943,6.115,0.651,8.77
			l26.06,43.351l-31.825,31.825l-43.352-26.06c-2.654-1.595-5.909-1.838-8.769-0.651l-54.455,22.567
			c-2.86,1.186-4.988,3.657-5.737,6.661l-12.228,49.084h-44.998l-12.228-49.085c-0.749-3.004-2.877-5.476-5.737-6.661
			l-54.455-22.567c-2.862-1.186-6.116-0.943-8.77,0.651l-43.351,26.06l-31.825-31.824l26.059-43.351
			c1.596-2.654,1.837-5.908,0.651-8.77l-22.567-54.455c-1.186-2.86-3.657-4.988-6.661-5.737l-49.084-12.228V227.5l49.085-12.229
			c3.004-0.749,5.476-2.877,6.661-5.737l22.567-54.455c1.186-2.861,0.943-6.115-0.651-8.77l-26.06-43.351l31.825-31.825
			l43.351,26.059c2.653,1.595,5.909,1.838,8.77,0.651l54.455-22.567c2.86-1.186,4.988-3.657,5.737-6.661l12.228-49.084h44.998
			l12.229,49.085c0.749,3.004,2.877,5.475,5.737,6.661l54.455,22.567c2.86,1.186,6.116,0.943,8.769-0.651l43.352-26.059
			l31.825,31.825l-26.06,43.351c-1.596,2.654-1.837,5.908-0.651,8.77l22.567,54.455c1.186,2.86,3.657,4.988,6.661,5.737
			l49.084,12.228V272.498z"/>
	</g>
</g>
    <g>
	<g>
		<path d="M314.386,371.045c-2.186-4.932-7.958-7.156-12.886-4.971c-16.356,7.252-33.781,10.769-51.115,10.768
			c-33.154-0.001-65.952-12.869-90.156-37.074c-40.991-40.991-49.056-104.431-19.614-154.272c2.743-4.644,1.202-10.631-3.441-13.375
			c-4.641-2.743-10.632-1.203-13.375,3.441c-33.977,57.518-24.675,130.721,22.619,178.017
			c21.338,21.338,48.267,35.392,77.877,40.644c8.6,1.525,17.238,2.282,25.844,2.282c20.344,0,40.474-4.236,59.279-12.574
			C314.347,381.743,316.572,375.975,314.386,371.045z"/>
	</g>
</g>
    <g>
	<g>
		<path d="M160.343,146.339c-3.805-3.824-9.988-3.839-13.811-0.034l-0.098,0.098c-3.823,3.805-3.838,9.988-0.034,13.811
			c1.908,1.919,4.415,2.878,6.922,2.878c2.491,0,4.983-0.947,6.889-2.844l0.098-0.098
			C164.132,156.344,164.147,150.162,160.343,146.339z"/>
	</g>
</g>
    <g>
	<g>
		<path d="M353.576,146.419c-27.667-27.666-64.452-42.903-103.579-42.903c-20.641,0-40.628,4.222-59.411,12.549
			c-4.931,2.187-7.156,7.955-4.97,12.885c2.187,4.931,7.955,7.156,12.886,4.97c16.273-7.214,33.598-10.873,51.495-10.873
			c33.91,0,65.791,13.205,89.769,37.183c40.99,40.991,49.056,104.431,19.613,154.272c-2.743,4.644-1.202,10.632,3.441,13.375
			c1.559,0.921,3.269,1.359,4.958,1.359c3.34,0,6.595-1.716,8.417-4.801C410.174,266.918,400.872,193.716,353.576,146.419z"/>
	</g>
</g>
    <g>
	<g>
		<path d="M353.594,339.783c-3.804-3.824-9.988-3.838-13.81-0.033l-0.098,0.098c-3.823,3.805-3.838,9.988-0.034,13.811
			c1.908,1.918,4.415,2.877,6.922,2.877c2.491,0,4.982-0.947,6.888-2.844l0.098-0.098
			C357.383,349.789,357.397,343.605,353.594,339.783z"/>
	</g>
</g>
</svg>
