<?xml version="1.0" encoding="utf-8"?>
<!-- Generator: Adobe Illustrator 16.0.4, SVG Export Plug-In . SVG Version: 6.00 Build 0)  -->
<!DOCTYPE svg PUBLIC "-//W3C//DTD SVG 1.1//EN" "http://www.w3.org/Graphics/SVG/1.1/DTD/svg11.dtd">
<svg version="1.1" id="Capa_1" xmlns="http://www.w3.org/2000/svg" xmlns:xlink="http://www.w3.org/1999/xlink" x="0px" y="0px"
	 width="500px" height="500px" viewBox="0.5 500.5 500 500" enable-background="new 0.5 500.5 500 500" xml:space="preserve">
<g>
	<g>
		<path fill="#302C2C" d="M474.903,526.543c-3.148-1.797-7.02-1.767-10.139,0.079l-184.957,109.37
			c-4.798,2.838-6.388,9.026-3.55,13.824c2.836,4.798,9.024,6.387,13.824,3.551l132.703-78.471L175.604,831.37l-122.94-37.612
			l160.442-94.873c4.798-2.838,6.388-9.027,3.551-13.825c-2.836-4.798-9.026-6.389-13.824-3.551L22.695,788.028
			c-3.442,2.035-5.358,5.91-4.885,9.882c0.474,3.972,3.246,7.288,7.069,8.458l146.82,44.917l64.773,117.898
			c0.067,0.122,0.137,0.226,0.209,0.317c1.081,1.803,2.701,3.274,4.721,4.125c1.265,0.531,2.594,0.791,3.914,0.791
			c2.587,0,5.133-0.995,7.056-2.876l74.48-72.79l140.096,42.861c0.969,0.296,1.963,0.441,2.952,0.441
			c2.136,0,4.245-0.678,6.003-1.979c2.572-1.904,4.091-4.915,4.091-8.114V535.31C479.995,531.686,478.051,528.339,474.903,526.543z
			 M237.023,857.506c-1.168,1.688-1.795,3.693-1.795,5.747v61.739l-44.23-80.506l195.723-203.08L237.023,857.506z M255.413,940.348
			v-63.451l49.445,15.127L255.413,940.348z M459.809,918.318l-198.324-60.675l198.324-286.298V918.318z"/>
	</g>
</g>
<g>
	<g>
		<path fill="#302C2C" d="M249.372,662.793c-1.877-1.877-4.481-2.957-7.136-2.957c-2.655,0-5.259,1.08-7.136,2.957
			c-1.876,1.878-2.958,4.481-2.958,7.146c0,2.654,1.08,5.248,2.958,7.125c1.877,1.888,4.481,2.957,7.136,2.957
			c2.654,0,5.258-1.069,7.136-2.957c1.876-1.877,2.957-4.471,2.957-7.125C252.329,667.274,251.249,664.671,249.372,662.793z"/>
	</g>
</g>
</svg>
